{"title":"Les Dimanches De Ville D'Avray (1962)","uid":5135478,"size":1461863895,"categoryP":"video","categoryS":"movies","magnet":"?xt=urn:btih:eb1b6a0f3871d55ba52fa698eee747c58df76de8&amp;dn=Les+Dimanches+De+Ville+D%5C%27Avray+%281962%29&amp;tr=udp%3A%2F%2Ftracker.openbittorrent.com%3A80&amp;tr=udp%3A%2F%2Fopen.demonii.com%3A1337&amp;tr=udp%3A%2F%2Ftracker.coppersurfer.tk%3A6969&amp;tr=udp%3A%2F%2Fexodus.desync.com%3A6969","seeders":4,"leechers":0,"uploader":"mfccorrea","files":3,"time":1256442530,"description":"Sundays and Cybele (original French title: Les Dimanches de Ville D'Avray) stars Hardy Kruger as a former bomber pilot. Emotionally shattered by a tragic wartime incident, Kruger goes into semi-seclusion in a small Parisian suburb. He is drawn out of his shell by 12-year-old orphan girl Patricia Gozzi. The nuns in charge of Patricia bless the relationship, assuming that Kruger is the girl's father. A warm, chaste friendship develops between the older man and the bright-eyed girl, culminating in their mutual decision to spend Christmas together in a nearby woods. Unfortunately, nurse Nicole Courcel, suspecting that Kruger is a pedophile, calls the police--a move that can only result in disaster for all concerned. Based on a novel by Bernard Eschasseriaux, the exquisitely photographed Sundays and Cybele won the 1962 Best Foreign Film Academy Award. \n\n   General\n      Complete name : Les.Dimanches.De.Ville.D'Avray.1962.DVDRip.avi\n      Format : AVI\n      Format/Info : Audio Video Interleave\n      File size : 1.31 GiB\n      Duration : 1h 46mn\n      Overall bit rate : 1 765 Kbps\n      Movie name : Les Dimanches de Ville d'Avray\n      Director : Serge Bourguignon\n      Writing application : VirtualDubModRus 1.5.10.2 (build 2542/release)\n      Writing library : VirtualDubMod build 2542/release\n      Comment : DVDRip.by.Polinka\n   Video #0\n      ID : 0\n      Format : MPEG-4 Visual\n      Format profile : AdvancedSimple@L5\n      Format settings, BVOP : Yes\n      Format settings, QPel : No\n      Format settings, GMC : No warppoints\n      Format settings, Matrix : Default (MPEG)\n      Muxing mode : Packed bitstream\n      Codec ID : XVID\n      Codec ID/Hint : XviD\n      Duration : 1h 46mn\n      Bit rate : 1 563 Kbps\n      Width : 720 pixels\n      Height : 304 pixels\n      Display aspect ratio : 2.35:1\n      Frame rate : 25.000 fps\n      Resolution : 24 bits\n      Colorimetry : 4:2:0\n      Scan type : Progressive\n      Bits/(Pixel*Frame) : 0.286\n      Stream size : 1.16 GiB (89%)\n      Writing library : XviD 1.1.2 (UTC 2006-11-01)\n   Audio #1\n      ID : 1\n      Format : AC-3\n      Format/Info : Audio Coding 3\n      Codec ID : 2000\n      Duration : 1h 46mn\n      Bit rate mode : Constant\n      Bit rate : 192 Kbps\n      Channel(s) : 2 channels\n      Channel positions : L R\n      Sampling rate : 48.0 KHz\n      Stream size : 146 MiB (11%)\n      Alignment : Aligned on interleaves\n      Interleave, duration : 40 ms (1.00 video frame)\n      Interleave, preload duration : 512 ms\n\nIMDB: tt0055910\n\nFrench audio; multilanguage subpack (English, Francais, Deutsch, Italiano, Espanol, Arabic, Nederlands, Greek, Portugues, Turkish)\n\nPosted at KG by MinimalBoy","torrent":{"xt":"urn:btih:eb1b6a0f3871d55ba52fa698eee747c58df76de8","amp;dn":"Les+Dimanches+De+Ville+D%5C%27Avray+%281962%29","amp;tr":["udp%3A%2F%2Ftracker.openbittorrent.com%3A80","udp%3A%2F%2Fopen.demonii.com%3A1337","udp%3A%2F%2Ftracker.coppersurfer.tk%3A6969","udp%3A%2F%2Fexodus.desync.com%3A6969"],"infoHash":"eb1b6a0f3871d55ba52fa698eee747c58df76de8","infoHashBuffer":{"type":"Buffer","data":[235,27,106,15,56,113,213,91,165,47,166,152,238,231,71,197,141,247,109,232]},"announce":[],"urlList":[]}}